<?xml version="1.0" standalone="no"?>
<!DOCTYPE svg PUBLIC "-//W3C//DTD SVG 20010904//EN"
 "http://www.w3.org/TR/2001/REC-SVG-20010904/DTD/svg10.dtd">
<svg version="1.0" xmlns="http://www.w3.org/2000/svg"
 width="64.000000pt" height="64.000000pt" viewBox="0 0 64.000000 64.000000"
 preserveAspectRatio="xMidYMid meet">

<g transform="translate(0.000000,64.000000) scale(0.100000,-0.100000)"
fill="#000000" stroke="none">
<path d="M25 615 l-25 -24 0 -271 0 -271 25 -24 24 -25 271 0 271 0 24 25 25
24 0 271 0 271 -25 24 -24 25 -271 0 -271 0 -24 -25z m560 -295 l0 -265 -265
0 -265 0 -3 255 c-1 140 0 260 3 267 3 11 61 13 267 11 l263 -3 0 -265z"/>
<path d="M385 355 c-60 -69 -112 -125 -115 -125 -2 0 -33 28 -67 62 -61 60
-63 61 -82 44 -20 -18 -19 -19 61 -95 44 -42 84 -77 88 -79 7 -2 236 247 254
276 7 12 -9 42 -23 42 -3 -1 -55 -57 -116 -125z"/>
</g>
</svg>
